<?xml version="1.0" encoding="UTF-8" standalone="no"?>
<svg width="100px" height="118px" viewBox="0 0 100 118" version="1.1" xmlns="http://www.w3.org/2000/svg" xmlns:xlink="http://www.w3.org/1999/xlink">
    <!-- Generator: Sketch 39 (31667) - http://www.bohemiancoding.com/sketch -->
    <title>Logo</title>
    <desc>Created with Sketch.</desc>
    <defs></defs>
    <g id="Patterns" stroke="none" stroke-width="1" fill="none" fill-rule="evenodd">
        <g id="Large" transform="translate(-173.000000, -193.000000)" fill="#303030">
            <g id="Style" transform="translate(167.000000, 193.000000)">
                <g id="Logo" transform="translate(6.000000, 0.000000)">
                    <g id="Fill-1">
                        <path d="M26.3417857,70.7287957 C26.3417857,70.7287957 26.3499868,70.9628537 26.3663889,71.4145445 C26.3684392,71.8682885 26.4176455,72.5417184 26.522209,73.399931 C26.7190344,75.1266218 27.3013095,77.621187 28.5089153,80.596187 C29.7329233,83.5650276 31.6642725,86.9773464 34.3439683,90.531332 C35.0267063,91.4449793 35.713545,92.2744479 36.5213492,93.1983609 C37.3189021,94.0914769 38.0980026,95.1098344 38.9714153,95.9721532 C40.6608333,97.7727571 42.4978704,99.6452208 44.564537,101.417081 C48.6732672,104.958747 53.6000529,108.225293 59.281336,110.288699 C64.9646693,112.282298 71.4025,112.947516 77.7275661,111.454883 C80.5282275,110.709593 83.5708201,109.266235 85.979881,107.260317 C88.3889418,105.213337 90.4761111,102.692081 91.7554762,99.7725155 C94.4392725,94.0586266 93.9410582,86.5790373 90.2321296,81.6761387 C88.382791,79.2000518 85.7543519,77.3008972 82.7076587,76.0587474 C79.710172,74.7940131 76.1447619,74.2889406 72.4132804,73.3095928 C68.7228042,72.3672015 65.0364286,71.1065735 61.6001852,69.2279503 C58.1721429,67.3739648 54.9552778,64.8629745 52.6036243,61.6251725 C51.3652646,60.0504141 50.547209,58.2128537 49.7824603,56.414303 C49.5179762,55.4760179 49.2555423,54.5418392 48.9931085,53.6117667 C48.710172,52.6837474 48.7450265,51.7310904 48.6158598,50.8010179 C48.3185714,48.9223948 48.5851058,47.123844 48.6609656,45.335559 L48.7040212,44.6682885 C48.7470767,44.2864044 48.7737302,44.2145445 48.8106349,43.972274 C48.8864947,43.5554865 48.9233995,43.2043996 49.0484656,42.7075397 C49.245291,41.7528295 49.5118254,40.8925638 49.7845106,40.0507764 C52.1505159,33.2733609 57.3848413,28.3848344 62.9328571,26.0586266 C68.5136772,23.6646653 74.2892725,23.7159938 78.865463,25.1203416 C83.4765079,26.5431677 86.8225397,29.1752933 89.0942328,31.6062112 C91.3925794,34.0576605 92.6042857,36.4146653 93.3403307,38.0058489 C94.0538228,39.619617 94.3121561,40.5188923 94.3121561,40.5188923 C94.3121561,40.5188923 93.9410582,39.6545204 93.0450926,38.1618875 C92.1429762,36.6795204 90.6360317,34.59353 88.2413228,32.4849551 C85.8568651,30.4030711 82.4780291,28.3396653 78.2729365,27.4013803 C74.0965476,26.5082643 69.0282937,26.9394237 64.4172487,29.2676846 C59.8349074,31.5754141 55.8040873,35.9814527 54.1536243,41.4694962 C53.9670503,42.1655107 53.7907275,42.8574189 53.6882143,43.5021049 C53.616455,43.7957039 53.5816005,44.2597136 53.5303439,44.6498102 C53.5139418,44.8140614 53.4647354,45.144617 53.4749868,45.1713078 L53.4708862,45.7359213 C53.4975397,47.2326605 53.3171164,48.7766218 53.6513095,50.2322981 C53.7989286,50.9591097 53.7763757,51.739303 54.0470106,52.429158 C54.2663889,53.131332 54.4837169,53.8376121 54.7051455,54.5459455 C55.344828,55.872274 55.9578571,57.2273464 56.9399339,58.3771049 C58.7728704,60.7484817 61.3275,62.672274 64.2552778,64.1484817 C67.1912566,65.6205832 70.4614286,66.6861629 73.875119,67.5443754 C77.2334524,68.4190131 81.0776984,68.8830228 84.9793519,70.4495687 C88.8112963,71.9627329 92.5181746,74.4798827 95.1568651,77.9948585 C97.7853042,81.534472 99.1302778,85.8008972 99.4132143,90.0262595 C99.7228042,94.1736025 98.9108995,98.5036749 97.1456217,102.258868 C95.4418519,106.075656 92.6739947,109.260076 89.5268386,111.744375 C86.297672,114.216356 82.7527646,115.848602 78.7773016,116.76225 C71.4107011,118.326743 63.8841799,117.119496 57.6431746,114.56539 C51.3447619,111.97638 46.2621561,108.036404 42.1780291,104.001984 C40.1339153,101.981694 38.3132804,99.9223948 36.6853704,97.8507764 C35.8304101,96.8365252 35.1804762,95.8120083 34.4485317,94.8367667 C33.7432407,93.8758972 33.0174471,92.8349551 32.4187698,91.8679262 C29.9174471,87.9464286 28.3100397,84.1871291 27.3607672,81.0006556 C26.4032937,77.8059696 26.1921164,75.1820566 26.1900661,73.4184092 C26.1941667,72.5314527 26.2269709,71.8641822 26.282328,71.4124914 C26.3212831,70.9608006 26.3417857,70.7287957 26.3417857,70.7287957"></path>
                        <path d="M0.429619332,18.1141763 C0.917405653,16.0699776 1.58071341,14.0074727 2.66241529,12.1382006 C3.74207623,10.2831666 5.01766807,8.48711945 6.61777048,6.98600643 C8.18725868,5.46862118 9.96492347,4.09768598 11.9670924,3.12135231 C13.9427291,2.11044015 16.0755186,1.32530516 18.2960689,0.938839747 C19.3981803,0.676450072 20.5268239,0.631701446 21.6554676,0.523897936 C22.9718784,0.564578506 23.6760051,0.466945139 24.9822111,0.656109788 C27.4007332,0.865614721 29.5192362,1.50023161 31.678558,2.35248954 C33.8174704,3.20067942 35.7869842,4.44550485 37.5850585,5.88559702 C39.3872147,7.33789335 40.9056792,9.10953216 42.2363766,11.0032127 C43.5589102,12.9131654 44.530401,15.0448273 45.2855513,17.2456461 C45.989678,19.4708733 46.3672532,21.7937338 46.4162359,24.1247304 C46.3794989,25.524142 46.414195,26.1445207 46.2182641,27.5398642 C46.0958073,28.807064 45.8100747,29.9135755 45.5447516,31.0566995 C44.258955,35.5498684 41.7751226,39.7603074 38.2136702,42.8438946 C36.4462101,44.3836541 34.486901,45.730181 32.3398249,46.6983785 C30.2070353,47.6828483 28.9028702,47.4957177 29.4355573,48.7751216 C29.9968178,50.0646957 30.4519489,51.4030864 31.0703558,52.6702862 C31.6683533,53.947656 32.2296137,55.2474002 32.8541435,56.5105319 L34.8318211,60.2511103 C35.450228,61.5264462 36.2788525,62.6594 36.9972658,63.871681 C37.7524162,65.0534516 38.3810278,66.3409916 39.258635,67.4271628 L41.7424674,70.8219563 C42.5159863,72.0159311 43.5731968,72.9170057 44.489582,73.9767345 C45.4488271,74.9571362 46.3488847,76.1246686 47.3285392,77.009471 L50.569563,79.9344039 C51.6390192,80.9554862 52.763581,81.7548594 53.8697742,82.6477979 C54.9759674,83.5305663 56.0597103,84.4560493 57.2536642,85.2513544 C58.4394544,86.0547956 59.57218,86.9518022 60.8049119,87.6881205 C62.0376439,88.4142687 63.2152703,89.2705947 64.4867802,89.9458921 C65.7460445,90.6517 67.0114316,91.3514058 68.3135557,91.9839887 C69.6034342,92.6572521 70.9402545,93.2308481 72.2934023,93.7841039 C70.8667804,93.4749315 69.4340356,93.1372828 68.033946,92.6938646 C66.6073241,92.3073992 65.2500944,91.7480414 63.8683733,91.2313981 C62.4784884,90.722891 61.1600367,90.0679338 59.8048479,89.4658614 C58.4517001,88.8617549 57.1944768,88.0928922 55.878066,87.4094586 C54.5534914,86.7402632 53.3044319,85.9225838 52.0410857,85.1232106 C50.798149,84.3014631 49.4735745,83.5183621 48.3490127,82.6254236 L44.8447068,80.0177991 C43.5752378,79.0618057 42.5710919,78.0061449 41.4383663,76.9728585 C40.3770739,75.9049935 39.144342,74.9591703 38.2422434,73.7631615 L35.3318531,70.3073471 C34.3093387,69.1845634 33.5541883,67.8949893 32.6663764,66.6847424 C31.8499976,65.4317809 30.9132029,64.2378061 30.2070353,62.9258578 L27.9517889,59.0510335 C27.2333756,57.7411192 26.5843545,56.3966263 25.8985963,55.0704398 C25.1944696,53.7503553 24.6270863,52.3631479 24.0086794,51.0023828 C23.410682,49.6090733 22.8820767,48.2605124 22.3412258,46.7512633 L21.1901317,43.5374983 L24.6944376,42.9089835 C26.449652,42.593709 28.1538427,42.0506234 29.755986,41.2878628 C31.3703751,40.5434083 32.8316931,39.4938496 34.1501448,38.3141131 C35.4522689,37.1160703 36.6605095,35.7919178 37.5870995,34.2765666 C38.5300169,32.7754536 39.2729216,31.1502648 39.7851993,29.449817 C39.989294,28.5894229 40.2321667,27.7046206 40.3117636,26.9174515 C40.4689165,26.2828346 40.489326,24.8325723 40.5158583,24.1796492 C40.4811622,22.3937722 40.2566581,20.6180653 39.8056088,18.8871071 C39.2872083,17.1805572 38.6198186,15.5004497 37.6503688,13.9749283 C36.6727552,12.4677132 35.5522753,11.0194849 34.1787181,9.82551019 C32.8031198,8.65390978 31.3499656,7.5128198 29.6825119,6.74192301 C28.0660819,5.96085607 26.2129021,5.28962667 24.5189161,5.03537311 C22.6269583,4.69772438 20.7247958,4.61839727 18.869575,4.81162998 C16.9919038,4.95197794 15.1448468,5.44421284 13.3773868,6.14798669 C11.5915582,6.82938623 9.944514,7.84640047 8.38931243,8.99969462 C6.81778328,10.1489207 5.49320871,11.6113872 4.30537758,13.1816572 C3.07876847,14.737689 2.19095655,16.5418722 1.44396997,18.4091104 C0.70514717,20.2885527 0.294916834,22.2859687 0.056126041,24.3525416 C-0.056126041,22.310377 -0.0336756246,20.1848173 0.429619332,18.1141763 Z"></path>
                    </g>
                </g>
            </g>
        </g>
    </g>
</svg>