<?xml version="1.0" encoding="utf-8"?>
<!-- Generator: Adobe Illustrator 19.1.0, SVG Export Plug-In . SVG Version: 6.00 Build 0)  -->
<svg version="1.1" id="Layer_3" xmlns="http://www.w3.org/2000/svg" xmlns:xlink="http://www.w3.org/1999/xlink" x="0px" y="0px"
	 viewBox="78 234 200 200" style="enable-background:new 78 234 200 200;" xml:space="preserve">
<style type="text/css">
	.st0{opacity:0.8;}
</style>
<g>
	<g class="st0">
		<path d="M101.5,281.8l0.1-2.3c0-0.4,0-0.8,0-1.2l0.1-1.2c0.1-0.8,0.2-1.6,0.3-2.3l0.5-2.3c0.1-0.8,0.5-1.5,0.7-2.2
			c0.3-0.7,0.5-1.5,0.8-2.2l1-2.2l1.2-2.1c1.7-2.7,3.6-5.2,6-7.3s5-4,7.9-5.3c0.4-0.2,0.7-0.4,1.1-0.5l1.1-0.4
			c0.8-0.3,1.5-0.6,2.3-0.8l2.3-0.6c0.8-0.2,1.6-0.3,2.4-0.4c1.6-0.3,3.2-0.3,4.8-0.5c0.9,0,1.6,0.1,2.4,0.1h1.2l1.2,0.2
			c3.3,0.3,6.3,1.3,9.3,2.6l2.2,1l2.1,1.2c0.7,0.4,1.4,0.9,2,1.4c0.6,0.5,1.3,0.9,1.9,1.5c2.5,2.1,4.6,4.6,6.4,7.2
			c1.8,2.7,3.1,5.7,4.1,8.8c0.9,3.1,1.4,6.3,1.5,9.6v0.3v0.4v0.6l-0.1,1.2c0,0.4,0,0.8-0.1,1.2l-0.2,1.2c-0.2,1.7-0.6,3.2-0.9,4.8
			c-0.9,3.1-2.2,6.1-3.9,8.9c-1.7,2.8-3.8,5.3-6.3,7.4c-2.4,2.1-5.1,4-8.1,5.4c-2.9,1.4-6.1,2.3-9.3,2.9l1.2-1.9
			c0.7,2,1.5,4.1,2.3,6.1c0.4,1,0.8,2,1.3,3c0.4,1,0.9,2,1.3,3c0.9,2,1.9,3.9,2.8,5.9l1.5,2.9c0.5,1,1.1,1.9,1.6,2.8
			c1,1.9,2.2,3.7,3.4,5.6c1.2,1.8,2.3,3.7,3.7,5.4l1.9,2.6l2,2.5l1,1.3l1.1,1.2l2.2,2.4c0.7,0.8,1.5,1.5,2.3,2.3l1.2,1.1l0.3,0.3
			l0.1,0.1c0,0,0,0,0.1,0l0.2,0.1l0.6,0.5l5,4.3c1.6,1.5,3.4,2.7,5.2,4c1.7,1.3,3.5,2.6,5.3,3.8l2.7,1.8c0.9,0.6,1.8,1.2,2.8,1.7
			l2.9,1.6c0.9,0.5,1.9,1.1,2.9,1.5l2.9,1.4c1,0.5,2,0.9,3,1.3s2,0.9,3,1.2c1,0.4,2.1,0.8,3.1,1.1c-1.1-0.3-2.1-0.6-3.2-0.9
			c-1.1-0.3-2.1-0.7-3.1-1.1c-2.1-0.7-4.1-1.6-6.1-2.5c-1-0.4-2-0.9-3-1.4l-2.9-1.5c-1-0.5-1.9-1-2.9-1.6l-2.8-1.7
			c-1.9-1.1-3.7-2.4-5.6-3.6c-1.8-1.3-3.7-2.5-5.4-3.9l-5.1-4.1l-0.6-0.5l-0.2-0.1l-0.1-0.1l-0.1-0.1l-0.3-0.3l-1.2-1.1
			c-0.8-0.8-1.7-1.5-2.4-2.3l-2.3-2.4l-1.1-1.2l-1.1-1.3l-2.2-2.5l-2-2.6c-1.4-1.7-2.6-3.6-3.9-5.4c-1.2-1.9-2.4-3.7-3.5-5.7
			c-0.6-1-1.1-1.9-1.7-2.9l-1.6-3c-1-2-2-3.9-3-5.9c-0.5-1-0.9-2-1.4-3s-0.9-2-1.3-3.1c-0.9-2.1-1.7-4.1-2.4-6.2l-0.6-1.6l1.7-0.3
			c2.9-0.5,5.8-1.4,8.5-2.7c2.7-1.2,5.2-3,7.4-5c2.2-2,4.2-4.2,5.7-6.8c1.6-2.5,2.8-5.3,3.6-8.1c0.3-1.4,0.7-2.9,0.9-4.3l0.2-1.1
			c0-0.4,0-0.8,0.1-1.2l0.1-1.2v-0.6v-0.2v-0.3c-0.1-1.5-0.1-3-0.4-4.4c-0.1-1.5-0.6-2.9-0.9-4.4c-0.9-2.8-2.1-5.6-3.7-8.1
			c-1.7-2.5-3.5-4.8-5.8-6.8c-0.5-0.5-1.2-0.9-1.7-1.4c-0.6-0.5-1.2-0.9-1.8-1.3l-1.9-1.2l-2-1c-2.7-1.2-5.6-2.2-8.6-2.6l-1.1-0.2
			h-1.3c-0.8,0-1.6-0.1-2.3-0.1c-1.5,0.1-3,0-4.5,0.3c-0.7,0.1-1.5,0.2-2.2,0.4l-2.2,0.5c-0.7,0.2-1.4,0.5-2.2,0.7l-1.1,0.4
			c-0.4,0.1-0.7,0.3-1,0.5c-2.8,1.2-5.3,2.9-7.7,4.8s-4.4,4.3-6.1,6.8l-1.2,1.9l-1,2.1c-0.4,0.7-0.6,1.4-0.9,2.1
			c-0.3,0.7-0.6,1.4-0.8,2.2C102.1,275.6,101.6,278.7,101.5,281.8z"/>
	</g>
	<g class="st0">
		<path d="M144.7,351.2c0,0,0,1.4,0,4c0.1,1.3,0.2,2.9,0.4,4.8c0.3,1.9,0.6,4,1.2,6.4c1.1,4.7,3.1,10.4,6.4,16.3
			c0.4,0.7,0.8,1.5,1.3,2.2s1,1.5,1.5,2.2c0.5,0.8,1,1.5,1.6,2.2c0.6,0.7,1.1,1.5,1.7,2.2c2.4,2.9,5.2,5.8,8.4,8.5
			c6.4,5.3,14,10.4,22.9,13.7c4.4,1.6,9.2,2.8,14.1,3.1c5,0.3,10,0.2,15.1-0.7c5-1,9.9-2.8,14-6c4-3.2,7.1-7.7,8.9-12.6
			c1.9-5,2.5-10.4,2-15.8c-0.3-2.7-0.7-5.3-1.6-7.9c-0.8-2.4-2.1-4.8-3.7-7c-3.1-4.3-7.4-7.8-12.3-10.1c-2.4-1.2-4.9-2.1-7.6-2.7
			c-2.6-0.6-5.3-1-8-1.4c-2.7-0.4-5.5-0.9-8.3-1.7c-0.7-0.2-1.3-0.4-2-0.6l-2-0.7l-1.9-0.8l-1.9-0.9c-2.5-1.3-4.8-2.9-6.8-4.8
			c-0.3-0.2-0.5-0.4-0.8-0.7l-0.7-0.7c-0.5-0.5-0.9-1-1.4-1.5s-0.9-1.1-1.3-1.6s-0.8-1.1-1.2-1.7c-3-4.6-4.7-9.8-5.2-15.1
			c-0.2-2.6-0.2-5.2,0.1-7.7l0.1-0.9c0-0.2,0-0.3,0.1-0.5l0.1-0.5c0.1-0.6,0.2-1.2,0.4-1.8c0.2-0.6,0.3-1.2,0.5-1.8
			c0.2-0.6,0.4-1.2,0.6-1.8c1.6-4.7,4.1-8.9,7.3-12.4c3.1-3.5,6.9-6.1,10.8-7.9c3.9-1.7,8-2.7,11.9-3c3.9-0.2,7.6,0.1,11,1.1
			c0.4,0.1,0.8,0.2,1.2,0.4c0.4,0.1,0.8,0.3,1.2,0.4s0.8,0.3,1.2,0.4c0.4,0.2,0.7,0.3,1.1,0.5c0.7,0.3,1.4,0.7,2.1,1
			c0.7,0.4,1.3,0.8,2,1.2c1.3,0.7,2.4,1.6,3.5,2.5c0.3,0.2,0.5,0.4,0.8,0.6c0.2,0.2,0.5,0.5,0.7,0.7c0.5,0.4,0.9,0.9,1.4,1.3
			c3.5,3.5,5.4,6.9,6.7,9.2c0.6,1.2,0.9,2.1,1.2,2.7c0.3,0.6,0.4,0.9,0.4,0.9s-0.2-0.3-0.4-0.9c-0.3-0.6-0.7-1.5-1.3-2.7
			c-1.3-2.3-3.4-5.5-6.9-8.9c-0.5-0.4-0.9-0.8-1.4-1.2c-0.2-0.2-0.5-0.4-0.7-0.6c-0.3-0.2-0.5-0.4-0.8-0.6c-1.1-0.8-2.2-1.6-3.5-2.3
			c-0.6-0.4-1.3-0.7-1.9-1.1c-0.7-0.3-1.4-0.6-2.1-1c-0.4-0.2-0.8-0.3-1.1-0.5c-0.4-0.1-0.8-0.2-1.2-0.4c-0.4-0.1-0.8-0.2-1.2-0.4
			c-0.4-0.1-0.8-0.3-1.2-0.3c-3.3-0.8-6.9-1-10.6-0.7c-3.8,0.4-7.5,1.3-11.3,3.1c-7.4,3.5-13.8,10.5-16.7,19.5
			c-0.2,0.6-0.3,1.1-0.5,1.7c-0.1,0.6-0.3,1.1-0.4,1.7c-0.1,0.6-0.2,1.2-0.3,1.8l-0.1,0.5c0,0.1,0,0.3-0.1,0.4l-0.1,0.9
			c-0.3,2.4-0.3,4.8,0,7.2c0.6,4.8,2.1,9.7,4.9,13.9c0.3,0.5,0.7,1.1,1.1,1.6s0.8,1,1.2,1.5c0.4,0.5,0.8,0.9,1.3,1.4l0.7,0.7
			c0.2,0.2,0.5,0.4,0.7,0.6c1.9,1.7,4,3.2,6.3,4.4l1.8,0.9l1.8,0.8l1.8,0.7c0.6,0.2,1.3,0.4,1.9,0.6c2.5,0.7,5.2,1.1,7.9,1.5
			s5.5,0.7,8.3,1.4c2.7,0.6,5.6,1.6,8.1,2.8c5.2,2.5,10,6.2,13.4,11c1.7,2.4,3.1,5,4.1,7.9c0.9,2.8,1.4,5.7,1.7,8.5
			c0.5,5.7-0.2,11.6-2.3,17c-2,5.4-5.4,10.2-9.9,13.7s-9.9,5.5-15.2,6.5c-5.3,0.9-10.6,1.1-15.8,0.6s-10.1-1.8-14.7-3.5
			c-9.2-3.6-16.8-8.9-23.2-14.4c-3.2-2.8-6-5.8-8.4-8.8c-0.6-0.8-1.1-1.6-1.7-2.3c-0.5-0.8-1.1-1.5-1.6-2.3
			c-0.5-0.8-0.9-1.5-1.4-2.3s-0.8-1.6-1.3-2.3c-3.2-6.1-5-11.9-6-16.7c-0.6-2.4-0.7-4.6-1-6.5c-0.1-1.9-0.2-3.5-0.2-4.8
			C144.6,352.6,144.7,351.2,144.7,351.2z"/>
	</g>
</g>
</svg>
